<?xml version="1.0" encoding="UTF-8" standalone="no"?>
<!DOCTYPE svg PUBLIC "-//W3C//DTD SVG 1.1//EN"
 "http://www.w3.org/Graphics/SVG/1.1/DTD/svg11.dtd">
<!-- Generated by graphviz version 2.47.0 (20210316.0004)
 -->
<!-- Title: dependencies Pages: 1 -->
<svg width="504pt" height="211pt"
 viewBox="0.00 0.00 504.00 211.00" xmlns="http://www.w3.org/2000/svg" xmlns:xlink="http://www.w3.org/1999/xlink">
<g id="graph0" class="graph" transform="scale(1 1) rotate(0) translate(4 207)">
<title>dependencies</title>
<polygon fill="white" stroke="transparent" points="-4,4 -4,-207 500,-207 500,4 -4,4"/>
<text text-anchor="start" x="227.01" y="-42.4" font-family="sans-serif" font-weight="bold" font-size="14.00">Legend</text>
<polygon fill="#ffffb3" stroke="transparent" points="14,-10 14,-30 34,-30 34,-10 14,-10"/>
<text text-anchor="start" x="37.63" y="-15.4" font-family="sans-serif" font-size="14.00"> &#160;Declarations</text>
<polygon fill="#8dd3c7" stroke="transparent" points="127,-10 127,-30 147,-30 147,-10 127,-10"/>
<text text-anchor="start" x="150.73" y="-15.4" font-family="sans-serif" font-size="14.00"> &#160;Module</text>
<polygon fill="#80b1d3" stroke="transparent" points="213,-10 213,-30 233,-30 233,-10 213,-10"/>
<text text-anchor="start" x="236.78" y="-15.4" font-family="sans-serif" font-size="14.00"> &#160;Bootstrap</text>
<polygon fill="#fdb462" stroke="transparent" points="310,-10 310,-30 330,-30 330,-10 310,-10"/>
<text text-anchor="start" x="333.67" y="-15.4" font-family="sans-serif" font-size="14.00"> &#160;Providers</text>
<polygon fill="#fb8072" stroke="transparent" points="406,-10 406,-30 426,-30 426,-10 406,-10"/>
<text text-anchor="start" x="429.73" y="-15.4" font-family="sans-serif" font-size="14.00"> &#160;Exports</text>
<g id="clust1" class="cluster">
<title>cluster_MainModule</title>
<polygon fill="none" stroke="black" stroke-dasharray="1,5" points="136,-70 136,-195 360,-195 360,-70 136,-70"/>
</g>
<g id="clust3" class="cluster">
<title>cluster_MainModule_imports</title>
<polygon fill="none" stroke="black" points="144,-78 144,-130 352,-130 352,-78 144,-78"/>
</g>
<!-- AppModule -->
<g id="node1" class="node">
<title>AppModule</title>
<polygon fill="#8dd3c7" stroke="black" points="343.66,-122 340.66,-126 319.66,-126 316.66,-122 260.34,-122 260.34,-86 343.66,-86 343.66,-122"/>
<text text-anchor="middle" x="302" y="-99.8" font-family="Times,serif" font-size="14.00">AppModule</text>
</g>
<!-- MainModule -->
<g id="node3" class="node">
<title>MainModule</title>
<polygon fill="#8dd3c7" stroke="black" points="293.6,-187 290.6,-191 269.6,-191 266.6,-187 204.4,-187 204.4,-151 293.6,-151 293.6,-187"/>
<text text-anchor="middle" x="249" y="-164.8" font-family="Times,serif" font-size="14.00">MainModule</text>
</g>
<!-- AppModule&#45;&gt;MainModule -->
<g id="edge1" class="edge">
<title>AppModule&#45;&gt;MainModule</title>
<path fill="none" stroke="black" d="M276.86,-122.11C276.86,-122.11 276.86,-140.99 276.86,-140.99"/>
<polygon fill="black" stroke="black" points="273.36,-140.99 276.86,-150.99 280.36,-140.99 273.36,-140.99"/>
</g>
<!-- ViewModule -->
<g id="node2" class="node">
<title>ViewModule</title>
<polygon fill="#8dd3c7" stroke="black" points="241.87,-122 238.87,-126 217.87,-126 214.87,-122 152.13,-122 152.13,-86 241.87,-86 241.87,-122"/>
<text text-anchor="middle" x="197" y="-99.8" font-family="Times,serif" font-size="14.00">ViewModule</text>
</g>
<!-- ViewModule&#45;&gt;MainModule -->
<g id="edge2" class="edge">
<title>ViewModule&#45;&gt;MainModule</title>
<path fill="none" stroke="black" d="M223.19,-122.11C223.19,-122.11 223.19,-140.99 223.19,-140.99"/>
<polygon fill="black" stroke="black" points="219.69,-140.99 223.19,-150.99 226.69,-140.99 219.69,-140.99"/>
</g>
</g>
</svg>
